<?xml version="1.0" encoding="utf-8"?>
<!-- Generator: Adobe Illustrator 25.3.1, SVG Export Plug-In . SVG Version: 6.00 Build 0)  -->
<svg version="1.1" id="レイヤー_1" xmlns="http://www.w3.org/2000/svg" xmlns:xlink="http://www.w3.org/1999/xlink" x="0px"
	 y="0px" viewBox="0 0 1406.3 2293.6" style="enable-background:new 0 0 1406.3 2293.6;" xml:space="preserve">
<style type="text/css">
	.st0{fill:none;stroke:#C6AF28;stroke-width:5;stroke-linecap:round;stroke-linejoin:round;}
	.st1{fill:none;stroke:#C6AF28;stroke-width:2;stroke-miterlimit:10;}
	.st2{fill:none;stroke:#C6AF28;stroke-width:5;stroke-linecap:round;stroke-linejoin:round;stroke-miterlimit:10;}
</style>
<path class="st0" d="M1403.8,115.3c-30.9-2.1-63.1-3.5-91.7,8.3c-18.3,7.6-34.1,20.2-52.6,27.3c-31.2,12-66.6,6.7-98.2-4
	c-14.1-4.8-28.1-10.8-42.9-12.6s-31.2,1.2-41.6,11.9c-10.5,10.9-12.7,28.1-7.2,42.1s17.6,24.8,31.4,31c6.1,2.7,12.7,4.8,17.5,9.3
	c11.7,11.3,7.8,30.2,19.2,41.8c6.7,6.8,21.4,11,19.7,20.3c-1.6,8.7-12,10.9-20.5,8.2c-20-6.2-35.3-18.4-50.1-38.7
	c21.4,15.3,20.8,45.2,27.8,85.4c1.5,8.3,0.1,25.3-8.4,24.7c-5.4-0.4-9.7-10.9-11.8-15.9l-15.9-37.2l-1,48.8
	c-0.1,4.9,1.5,13.2-1.3,17.2s-14,6-14.7-0.9c-0.2-2.4-2.1-4.3-2.5-6.7l-8.8-56.4l-0.9,55.4c-0.1,5.7-0.7,13.8-6.4,14.9
	c-14.7,2.7-14.1-9.4-14.6-18.6l-3.3-71.4c-0.3,16.5-7.9,45-22.2,52.8c-20.2,11-9.1-19.1-6.6-41.8c4.8-43.2-13.5-75.1-1.1-97
	c6.1-10.8-1.6-27.2-12.7-32.8c-8.7-4.5-19.2-1-28.9,0.1c-21.3,2.2-41.7-7.9-62.9-10.9s-48.1,6.5-50.1,27.6
	c-1.6,17.1,14.2,30.5,29.2,39s32.4,16.9,38.2,33.1c1.6,4.5,2.2,9.4,4.7,13.4c8.3,13.3,33.1,12,36.5,27.3c1.9,8.8-3.8,14-12.6,16.2
	s-23,0.6-31.8-1.8c7.8,12.9,17.2,29,22.7,43c4.3,11.1,5.2,27.9-6.5,30.7c-7.5,1.8-14.5-4.4-19.1-10.5c-8.2-11.1-17.3-27-20.2-40.5
	c7,11.4,15.6,26.8,18.9,39.8c1.4,5.5,2.4,11.3,0.6,16.6s-7.5,9.8-13,8.4c-4.4-1.1-7.2-5.3-9.6-9.2c-9.3-15.4-21-31.9-30.4-47.2
	c1.7,15,5.5,31.2,6.8,46.3c0.3,4,0.6,8.4-1.8,11.7c-3.8,5.5-10.3,3-15.3-1.4s-10.6-13.4-12.5-19.8c-5.5-18.5-7.5-41-13-59.5
	c-0.6,29.9-16.1,44.6-37.8,54.4c-5.3,2.4-5.2-10.2-4.4-12.2c10-24-4.2-42.3,8.9-67.9c4.2-8.2,15.8-21.1,18-30
	c3.3-13.5-1.6-28-10.4-38.7c-6.8-8.3-17.1-15.1-27.8-13.5c-16.9,2.5-23.9,22.3-35.1,35.1c-16.3,18.8-43.7,23.3-68.7,23.7
	s-51-2.1-74.2,7.2c-27.5,11-115.6,36.2-150.7,54.2C405,358,141.7,431.3,125.1,656.4c-27,366.6,423.9,360.8,688.3,412.2
	c207.2,40.2,401.1,109.1,458.9,295.8c13.6,43.9,16.5,97,9.7,152.6l-5.9-3.2c-1.2,0.4-2.4,0.4-3.6,0c-1.4-0.6-2.3-2.2-3-3.7
	c-3.1-7.4-3.3-15.7-0.6-23.2c0.4-1.3,1.1-2.5,2-3.4c3.1-2.6,7.7,0.7,9.3,4.5c2.3,5.5,1.6,11.9,0.2,17.7c-1.8,7.6-4.5,14.9-7.3,22.2
	c-2.1,5.4-4.2,10.9-7.3,15.7c-3.7,5.6-8.8,9.9-13.9,14c-10.4,8.4-21.2,16.2-32.4,23.4c-2.5,1.8-5.4,3.2-8.4,4.1
	c-4.3,1.1-8.9,0.1-13.2-1.1c-9.8-2.6-19.5-5.7-28.9-9.5c-4.3-1.7-8.7-3.7-11.5-7.6c-2.3-3.3-3.2-7.5-3.9-11.6
	c-3.7-21.6-4.9-45.3,5.5-64.2c8.2-15,22.5-24.9,36.3-34.1c3.2-2.1,6.4-4.3,10-5.5c3.1-0.9,6.3-1.4,9.5-1.5
	c13.3-0.6,26.6,0.8,39.4,4.1c4.5,1.2,9.6,3.2,11.1,7.9c1.9,5.9-2.9,11.7-7.4,15.6c-11.9,10.3-24.9,19.3-38.9,26.6
	c-4,2.1-47.7-6.5-50.3-7.2"/>
<line class="st1" x1="1224.6" y1="1517.8" x2="1224.6" y2="1562.3"/>
<circle class="st1" cx="1174.8" cy="1517" r="5.5"/>
<circle class="st1" cx="1185.8" cy="1540" r="5.5"/>
<circle class="st1" cx="1200.8" cy="1562" r="5.5"/>
<path class="st2" d="M1280,1529.3c-22.3,181.1-145.8,377.3-343.3,385.8c-192.5,8.3-417.8,54.5-636.6,185l-0.8-6.7
	c-2.4-0.3-5-0.5-7.1,0.6l-0.4,0.2c-2.4,1.6,0,5.4,2.5,4c9.6-5.1,13.6-17.2,14.8-28c1.4-12.6,0.8-25.3-1.6-37.7
	c-2.2-11.3-6.6-23.2-16.8-29.5c-9.2-5.8-21.2-5.8-32.2-4.5c-4.5,0.6-9.2,1.3-13.2,3.4c-5.8,3-9.7,8.3-12.7,13.8
	c-8,14.8-10.1,32.6-4,48.1s20.9,28.2,38.4,30.8c9.1,1.4,19.3,0.4,26.5,5.7c6.9,5.1,8.5,14.1,9.4,22.2c1.6,13.9,2.6,28.7-3.1,41.3
	c-0.5,1.2-1.9,1.7-3.1,1.2c-0.6-0.3-1-0.7-1.2-1.3l-8-20.1c-0.8-2-1.6-4.1-3.4-5.4c-3.9-3.1-10.3-0.7-12.9,3.4s-2.3,9.1-2,13.9
	c1.2,17.2,3.2,34.7-0.9,51.4c-0.3,1.3-1.6,2.1-2.9,1.7c-0.4-0.1-0.7-0.3-1-0.5c-2.9-2.6-4-7-4.7-10.9c-2.4-14.5-5.2-29.5-14.3-41.4
	s-26.6-19.5-40.9-13.5c-1.2,0.4-2.3,1.2-3.1,2.2c-0.7,1.2-1.1,2.6-1,4c-0.5,16.8,5.2,34.6-0.5,50.1c0,0-2.5,7.6-4.3,0.4
	c0,0-10.3-38.2-9.8-52c0.2-6.8,0.5-13.7,3-20.1c4.9-12.9,17.5-21.7,29.4-29.7c4.5-3.1,9.2-6.2,14.5-7.9c4.7-1.4,9.5-2.1,14.3-2.1
	c14.2-0.5,28.4,0.9,42.3,4.1c3.4,0.8,7.3,2.1,8.3,5.2c0.6,1.9,0,4-0.6,5.9c-3.6,10.6-8.2,21.8-18,28.1c-10.8,7-25.2,6.3-38.2,4.2
	c-20.7-3.4-29.9-4.5-48.7-13.2c0,0-18,48.3-48.1,71.9c-30.1,23.6-86.8,53.4-105.3,53"/>
</svg>
