<?xml version="1.0" encoding="UTF-8" standalone="no"?>
<!-- Generator: Adobe Illustrator 25.3.1, SVG Export Plug-In . SVG Version: 6.00 Build 0)  -->

<svg
   id="レイヤー_1"
   version="1.1"
   x="0px"
   y="0px"
   viewBox="0 0 1512 358"
   style="enable-background:new 0 0 1512 358;"
   xml:space="preserve"
   sodipodi:docname="house4.svg"
   inkscape:version="1.3.2 (091e20e, 2023-11-25, custom)"
   xmlns:inkscape="http://www.inkscape.org/namespaces/inkscape"
   xmlns:sodipodi="http://sodipodi.sourceforge.net/DTD/sodipodi-0.dtd"
   xmlns="http://www.w3.org/2000/svg"
   xmlns:svg="http://www.w3.org/2000/svg"><defs
   id="defs1" /><sodipodi:namedview
   id="namedview1"
   pagecolor="#ffffff"
   bordercolor="#000000"
   borderopacity="0.25"
   inkscape:showpageshadow="2"
   inkscape:pageopacity="0.0"
   inkscape:pagecheckerboard="0"
   inkscape:deskcolor="#d1d1d1"
   inkscape:zoom="0.87169312"
   inkscape:cx="756"
   inkscape:cy="179.53566"
   inkscape:window-width="1920"
   inkscape:window-height="1001"
   inkscape:window-x="-9"
   inkscape:window-y="-9"
   inkscape:window-maximized="1"
   inkscape:current-layer="レイヤー_1" />
<style
   type="text/css"
   id="style1">
	.st0{fill:#C6AF28;}
</style>
<g
   id="g1">
	<path
   id="path1"
   class="st0"
   d="M799.07,194.18c10.36-4.67,21.84-4.67,32.97-4.07c5.88,0.32,11.76,0.7,17.63,1.05   c6.09,0.37,12.21,0.61,18.29,1.1c0.74,0.06,1.41,0.11,1.97,0.66c0.61,0.6,0.68,1.39,0.72,2.21c0.07,1.41,0,2.84-0.01,4.26   c-0.02,3.17-0.03,6.33-0.05,9.5c-0.03,6-0.07,12-0.1,18c-0.07,12.33-0.14,24.66-0.2,36.99c-0.07,12.16-0.13,24.33-0.2,36.49   c-0.01,2.39,0.53,6.6-2.14,7.82c-1.11,0.51-2.45,0.36-3.64,0.35c-1.66-0.02-3.32-0.05-4.98-0.07c-6.06-0.08-12.12-0.17-18.18-0.25   c-6.06-0.08-12.12-0.17-18.18-0.25c-3.07-0.04-6.14-0.09-9.21-0.13c-1.41-0.02-2.82-0.04-4.23-0.06c-1.43-0.02-3.2,0.21-4.57-0.29   c-2.55-0.95-2.55-5.26-2.89-7.49c-0.47-3.08-0.91-6.17-1.31-9.26c-0.76-5.86-1.39-11.74-1.9-17.62   c-2.05-23.76-2.07-47.69-0.05-71.45c0.25-2.91,0.53-5.81,0.84-8.71c0.05-0.48-0.7-0.48-0.75,0c-2.65,25-3.05,50.24-1.18,75.31   c0.46,6.22,1.07,12.43,1.81,18.62c0.36,3,0.75,6,1.18,9c0.41,2.88,0.7,5.86,1.37,8.69c0.47,2,1.5,3.57,3.67,3.84   c3.01,0.39,6.22,0.14,9.25,0.18c6.31,0.09,12.62,0.18,18.92,0.26c6.47,0.09,12.95,0.18,19.42,0.27c3.15,0.04,6.31,0.09,9.46,0.13   c2.15,0.03,5.09,0.54,6.69-1.3c1.4-1.61,1.31-4.1,1.33-6.1c0.02-3.17,0.03-6.33,0.05-9.5c0.04-6.5,0.07-13,0.11-19.5   c0.07-12.83,0.14-25.66,0.21-38.49c0.07-12.89,0.3-25.79,0.21-38.68c-0.01-2-0.48-3.8-2.7-4.13c-2.83-0.42-5.8-0.37-8.65-0.55   c-6.43-0.39-12.86-0.77-19.28-1.16c-11.39-0.69-23.15-1.85-34.36,0.96c-2.65,0.66-5.23,1.57-7.73,2.69   C798.25,193.73,798.63,194.38,799.07,194.18L799.07,194.18z" />
	<path
   id="path2"
   class="st0"
   d="M-39.3,287.16c131.2-74.66,290.76-87.55,436.28-53.84c36.07,8.35,70.59,22.37,106.78,29.99   c20.15,4.24,42.6,7.55,62.85,2c7.7-2.11,16.03-5.93,20.6-12.82c0.69-1.04,1.24-2.11,1.71-3.27c4.07-10.11,5.4-22.81,7.32-33.62   c1.86-10.49,3.98-20.89,6.4-31.27c2.92-12.59,4.82-25.98,20.66-26.93c11.76-0.7,23.85,0.29,35.63,0.49   c25.03,0.41,50.3,1.9,75.32,1.24c5.64-0.15,9.63-1.41,10.92-7.43c2.08-9.76,0.54-21.74,0.68-31.7c0-0.16-0.12-0.32-0.28-0.36   c-3.85-1.05-7.7-2.11-11.55-3.16c-3.38-0.93-10.49-1.15-8.12-5.25c1.59-2.75,7.41-5.96,9.88-7.87c3.69-2.84,7.41-5.63,11.2-8.34   c12.75-9.13,26.04-17.51,39.82-25c13.66-7.43,29.2-16.59,44.41-20.25c10.35-2.49,20.47,5.35,29.23,10   c7.73,4.11,15.47,8.22,23.2,12.32c15.47,8.22,30.93,16.43,46.4,24.65c4.09,2.17,8.19,4.35,12.28,6.52c4.42,2.35,8.92,4.58,3.11,9   c-4.03,3.07-9.97,2.94-14.62,4.56c-10.22,3.56-9.97,12.86-10.12,22.3c-0.29,17.62-0.57,35.24-0.86,52.86   c-0.65,39.91-1.3,79.81-1.95,119.72c0,0.27,0.24,0.4,0.47,0.36c3.43-0.5,6.86-1,10.29-1.5c0.13-0.02,0.22-0.15,0.26-0.26   c8.33-22.07,13.77-44.94,16.47-68.37c0.05-0.4-0.51-0.47-0.7-0.19c-8.23,12.27-10.42,27.2-7.09,41.5c0.04,0.16,0.2,0.27,0.36,0.28   c20.7,0.51,22.04-28.01,19.7-42.3c-0.97-5.94-1.88-21.98-9.46-24.33c-5.84-1.81-9.49,6.59-11.55,10.42   c-10.41,19.34-16.28,44.21-8.03,65.41c5.49,14.11,19.33,28.94,35.88,26.57c5.03-0.72,4.87-0.96,6.64-5.36   c2.82-6.99,5.34-14.1,7.56-21.3c4.66-15.07,7.95-30.5,10.12-46.12c0.05-0.36-0.33-0.63-0.63-0.36   c-11.62,10.35-13.39,28.99-5.76,42.17c0.07,0.13,0.27,0.23,0.42,0.17c22.07-9.16,29.56-42.14,18.11-61.94   c-5.01-8.67-16.29-15.9-23.86-5.97c-4.94,6.49-8.34,15.5-11.21,23.12c-3.23,8.56-5.22,17.6-4.4,26.78   c1.4,15.61,10.9,31.95,21.1,43.51c4,4.53,5.52,4.15,10.65,2.26c7.62-2.81,11.03-0.76,18.05,0.89c3.61,0.85,7.22,1.13,10.9,0.68   c14.3-1.73,25.86-13.14,34.27-23.94c11.65-14.97,19.24-32.66,30.03-48.24c18.35-26.5,48.21-42.74,78.09-53.49   c26.69-9.59,55.27-11.01,81.19,1.82c15.71,7.78,29.14,19.52,40.72,32.56c12.27,13.82,21.61,29.88,34.39,43.27   c19.4,20.34,44.02,35.2,70.89,43.34c48.62,14.72,112.83,10.04,150.77-27.27c0.34-0.34-0.19-0.87-0.53-0.53   c-24.45,24.04-60.83,33.79-94.3,34.58c-40.83,0.96-81.92-12.09-113.34-38.49c-19.01-15.98-31.04-37.07-47.35-55.43   c-14.15-15.93-31.23-30.01-51.53-37.2c-34.02-12.05-69.13-0.62-99.69,15.46c-19.3,10.15-35.64,20.92-48.51,38.94   c-15.75,22.04-25.2,50.64-48.1,66.73c-5.61,3.94-12.17,7.02-19.12,7.33c-6.55,0.29-11.92-2.69-18.2-3.54   c-5.73-0.78-11.97,4.09-17.36,1.29c-2.35-1.22-5.48-7.09-7.05-9.37c-1.96-2.83-3.88-5.7-5.64-8.66   c-8.64-14.55-12.15-30.08-7.37-46.63c2.13-7.39,5.41-14.39,8.82-21.26c1.33-2.68,2.54-5.76,4.52-8.02   c5.54-6.32,12.92-5.13,18.46,0.44c9,9.05,10.44,24.01,8.16,35.94c-1.82,9.47-7.8,24.84-17.95,28.46c-4.55,1.63-5.5-1.45-6.64-5.41   c-0.96-3.35-1.34-6.9-1.25-10.39c0.19-6.83,2.12-13.72,6.23-19.24c3.45-4.62,2.92-1.79,2.23,2.54c-0.53,3.31-1.11,6.62-1.76,9.91   c-1.47,7.49-3.23,14.92-5.3,22.26c-1.92,6.83-4.1,13.58-6.55,20.23c-1.07,2.93-1.86,6.59-3.56,9.19c-2.74,4.18-7.63,4.1-12.14,3.45   c-13.91-2.02-24.15-14.56-28.8-27.06c-5.25-14.1-3.88-30.36,0.36-44.52c1.99-6.65,4.71-13.1,8-19.22c0.53-0.99,1.59-3.53,2.52-4.43   c0.36-0.57,0.73-1.14,1.09-1.72c3.53-0.2,7.06-0.4,10.59-0.61c2.24,1.59,2.89,8,3.48,10.65c3.41,15.25,7.28,37.74-7.84,48.35   c-5.53,3.88-9.41,2.6-10.1-3.92c-0.34-3.22-0.38-6.49-0.12-9.72c0.28-3.58,0.95-7.14,1.96-10.59c0.72-2.47,2.6-10.23,5.19-11.68   c-0.16,0.09-0.85,8.9-1.19,11.02c-0.54,3.4-1.14,6.8-1.8,10.18c-1.51,7.68-3.35,15.31-5.51,22.83c-1.74,6.05-3.21,16.68-8.02,20.76   c-2.57,2.18-7.04,3.37-8.86-0.21c-1.32-2.6,0.18-11.13,0.23-13.99c0.51-31.61,1.03-63.23,1.54-94.84   c0.26-16.07,0.52-32.13,0.78-48.2c0.13-7.78-0.95-16.84,0.86-24.45c1.85-7.77,8.39-9.59,15.24-11.16   c5.84-1.34,10.99-2.85,12.36-9.29c0.03-0.16-0.02-0.34-0.17-0.42c-21.83-11.6-43.67-23.2-65.5-34.79   c-10.46-5.56-20.92-11.11-31.39-16.67c-7.64-4.06-14.13-7.99-22.9-5.31c-19.22,5.87-38.05,16.51-55.25,26.71   c-18.46,10.95-35.89,23.49-52.36,37.25c-0.22,0.19-0.09,0.56,0.17,0.63c4.81,1.32,9.62,2.64,14.43,3.95   c3.56,0.98,6.82,0.86,8.34,5.02c0.69,1.88-0.08,5.47-0.11,7.54c-0.07,5.02-0.12,10.05-0.21,15.07c-0.11,5.48,0.49,10.5-8.48,12.73   c-2.48,0.62-5.69-0.04-8.29-0.08c-22.49-0.37-44.99-0.74-67.48-1.11c-10.46-0.17-20.92-0.37-31.39-0.52   c-6.09-0.08-12.94-0.31-17.94,3.8c-5.34,4.39-6.51,12.08-8,18.37c-1.69,7.12-3.35,14.26-4.84,21.43   c-1.46,7.04-2.54,14.14-3.93,21.19c-1.79,9.02-2.92,19.48-6.34,27.98c-2.45,6.1-8.93,10.26-14.67,12.75   c-18.6,8.1-41.43,5.51-60.72,2.1c-35.94-6.35-69.96-20.47-105.32-29.24c-70.44-17.46-143.78-23.88-216.14-17.93   c-80.81,6.65-160.26,29.23-230.87,69.41C-40.1,286.75-39.72,287.4-39.3,287.16L-39.3,287.16z" />
</g>
</svg>
