<?xml version="1.0" encoding="utf-8"?>
<!-- Generator: Adobe Illustrator 25.3.1, SVG Export Plug-In . SVG Version: 6.00 Build 0)  -->
<svg version="1.1" id="レイヤー_1" xmlns="http://www.w3.org/2000/svg" xmlns:xlink="http://www.w3.org/1999/xlink" x="0px"
	 y="0px" viewBox="0 0 1589.8 333.5" style="enable-background:new 0 0 1589.8 333.5;" xml:space="preserve">
<style type="text/css">
	.st0{fill:none;stroke:#C6AF28;stroke-width:8;stroke-linecap:round;stroke-linejoin:round;}
</style>
<path class="st0" d="M842.4,172.5c11.6-5.3,24.5-4.7,37-3.9l32.1,1.9c0.9-0.1,1.7,0.3,2.4,0.9c0.6,0.9,0.8,2.1,0.7,3.1
	c-0.2,35.5-0.4,71-0.6,106.5c0,2-0.1,4.3-1.5,5.6c-1.1,0.8-2.4,1.2-3.7,1l-58.3-0.8c-1.1,0.1-2.2-0.2-3.1-0.8
	c-1.1-1-1.5-2.7-1.7-4.3c-5.8-36.4-6.8-73.4-2.9-110"/>
<path class="st0" d="M4,265.5c149.1-85.4,338-90.2,499.1-36.2c116.8,39.1,128.9-1.5,128.9-1.5c11.2-47.2,4.4-25.9,15.7-73.1
	c1.2-5,2.5-10.1,5.6-13.7c4.5-5.2,11.5-5.4,17.8-5.3l106.7,1.8c3.3,0.1,7-0.1,9.1-3.2c1.6-2.3,1.7-5.5,1.7-8.4l0.4-27.1l-23.1-6.3
	c31-26.2,66-47.3,103.6-62.5c3.4-1.3,6.8-2.6,10.3-2.5c4.2,0.1,8.2,2.2,12,4.2l101,53.6c-1.7,12.2-19.8,6.1-26,16
	c-2,3.3-2.2,7.7-2.2,11.9c-1,59.1-1.9,118.2-2.9,177.2l23.9,0.1c8.4-21.9,13.9-44.9,16.5-68.2c-7.9,11.1-10.7,27.2-7.1,41.2
	c9.5,1,17.7-9.4,19.8-20.6s-0.5-22.8-3-33.8c-1.2-5.4-3.7-12-8.4-11.7c-2.9,0.2-5.2,3.2-6.9,6.1c-10.9,18.1-17.6,41.4-12.6,62.8
	s24.6,38.5,42.3,31.8c9.6-22.8,16-46.8,19.3-71.3c-10.9,8.9-13.7,29.2-5.7,41.7c20-7.5,29.6-40.6,17.9-61.4c-4.5-8-13.6-14.1-20.3-9
	c-2.7,2-4.5,5.5-6.1,8.8c-6.4,12.7-13,26.4-12.5,41.3c0.6,17.1,10.5,31.4,19.9,44.3c2,2.8,4.5,5.8,7.6,5.5c2.1-0.2,3.8-1.9,5.8-2.8
	c5.2-2.5,11,0.5,16.4,2c22.7,5.8,32.8-23.6,50.1-43.7c20.4-23.7,40-44.9,94.2-74.7c54.2-29.8,148.2-12.9,190.2,10.7
	s135.2,122.5,182.7,75"/>
</svg>
